<svg width="24" height="24" viewBox="0 0 24 24" fill="none" xmlns="http://www.w3.org/2000/svg">
<path d="M12.0264 24H11.9736C5.37142 24 0 18.6286 0 12.0264V11.9736C0 5.37144 5.37142 0 11.9736 0H12.0264C18.6286 0 24 5.37144 24 11.9736V12.0264C24 18.6286 18.6286 24 12.0264 24ZM13.3636 0.545455C7.20908 0.545455 0.272727 5.84544 0.272727 12C0.272727 18.1546 5.84545 23.4545 12 23.4545C18.1546 23.4545 23.4545 18.1546 23.4545 12V11.9736C23.4545 5.81906 19.5182 0.545455 13.3636 0.545455Z" fill="#4F5D72" fill-opacity="0.88"/>
<path d="M13.6145 9.30915V11.8348H16.7389L16.2442 15.2371H13.6145V23.0757C13.0873 23.1488 12.5474 23.1816 11.9998 23.1816C11.3678 23.1816 10.7476 23.1366 10.1432 23.0391V15.2371H7.26172V11.8348H10.1432V8.74455C10.1432 6.82735 11.6973 5.27246 13.6153 5.27246V5.27409C13.621 5.27409 13.6259 5.27246 13.6316 5.27246H16.7397V8.21488H14.7088C14.1052 8.21488 13.6153 8.70474 13.6153 9.30834L13.6145 9.30915Z" fill="#4F5D72"/>
</svg>
