<svg width="25" height="24" viewBox="0 0 25 24" fill="none" xmlns="http://www.w3.org/2000/svg">
<path d="M12.5264 24H12.4736C5.87143 24 0.5 18.6286 0.5 12.0264V11.9736C0.5 5.37142 5.87143 0 12.4736 0H12.5264C19.1286 0 24.5 5.37142 24.5 11.9736V12.0264C24.5 18.6286 19.1286 24 12.5264 24ZM12.4736 0.812375C6.31905 0.812375 0.501799 5.60991 0.501799 11.7645L0.5 12.0264C0.5 18.181 6.31905 23.1876 12.4736 23.1876H12.5264C18.681 23.1876 23.6876 18.181 23.6876 12.0264V11.9736C23.6876 5.81904 18.681 0.812375 12.5264 0.812375H12.4736Z" fill="#4F5D72"/>
<path d="M16.087 5.12402H8.91214C6.92995 5.12402 5.31738 6.73659 5.31738 8.71878V15.2828C5.31738 17.265 6.92995 18.8775 8.91214 18.8775H16.087C18.0692 18.8775 19.6818 17.265 19.6818 15.2828V8.71878C19.6818 6.73659 18.0692 5.12402 16.087 5.12402ZM6.5855 8.71878C6.5855 7.43604 7.6294 6.39213 8.91214 6.39213H16.087C17.3698 6.39213 18.4137 7.43604 18.4137 8.71878V15.2828C18.4137 16.5655 17.3698 17.6094 16.087 17.6094H8.91214C7.6294 17.6094 6.5855 16.5655 6.5855 15.2828V8.71878Z" fill="#4F5D72"/>
<path d="M12.5 15.3437C14.3433 15.3437 15.8437 13.8441 15.8437 12C15.8437 10.1559 14.3441 8.65625 12.5 8.65625C10.6559 8.65625 9.15625 10.1559 9.15625 12C9.15625 13.8441 10.6559 15.3437 12.5 15.3437ZM12.5 9.92517C13.6446 9.92517 14.5756 10.8562 14.5756 12.0008C14.5756 13.1454 13.6446 14.0764 12.5 14.0764C11.3554 14.0764 10.4244 13.1454 10.4244 12.0008C10.4244 10.8562 11.3554 9.92517 12.5 9.92517Z" fill="#4F5D72"/>
<path d="M16.1529 9.19637C16.6492 9.19637 17.0538 8.79264 17.0538 8.29546C17.0538 7.79829 16.65 7.39453 16.1529 7.39453C15.6557 7.39453 15.252 7.79829 15.252 8.29546C15.252 8.79264 15.6557 9.19637 16.1529 9.19637Z" fill="#4F5D72"/>
</svg>
