<svg width="12" height="12" viewBox="0 0 12 12" fill="none" xmlns="http://www.w3.org/2000/svg">
<path d="M10.7542 11.2397L6.45881 6.94432C6.11581 7.23633 5.72136 7.46236 5.27547 7.62243C4.82957 7.78249 4.3815 7.86252 3.93126 7.86252C2.83253 7.86252 1.90261 7.4822 1.14149 6.72154C0.380498 5.96089 0 5.03154 0 3.93349C0 2.83533 0.380327 1.90518 1.14098 1.14304C1.90163 0.381012 2.83098 0 3.92903 0C5.0272 0 5.95735 0.380498 6.71949 1.14149C7.48151 1.90261 7.86253 2.83253 7.86253 3.93126C7.86253 4.40791 7.77809 4.86919 7.60922 5.31508C7.44035 5.76098 7.21872 6.14222 6.94432 6.45881L11.2397 10.7543L10.7542 11.2397ZM3.93126 7.17653C4.84146 7.17653 5.60989 6.8632 6.23655 6.23655C6.8632 5.61001 7.17653 4.84158 7.17653 3.93126C7.17653 3.02095 6.8632 2.25252 6.23655 1.62598C5.60989 0.999322 4.84146 0.685994 3.93126 0.685994C3.02095 0.685994 2.25252 0.999322 1.62598 1.62598C0.999322 2.25252 0.685994 3.02095 0.685994 3.93126C0.685994 4.84158 0.999322 5.61001 1.62598 6.23655C2.25252 6.8632 3.02095 7.17653 3.93126 7.17653Z" fill="#DADADA"/>
</svg>
