<svg width="24" height="24" viewBox="0 0 24 24" fill="none" xmlns="http://www.w3.org/2000/svg">
<path d="M12.0264 24H11.9736C5.37143 24 0 18.6286 0 12.0264V11.9736C0 5.37142 5.37143 0 11.9736 0H12.0264C18.6286 0 24 5.37142 24 11.9736V12.0264C24 18.6286 18.6286 24 12.0264 24ZM11.9736 0.812375C5.81905 0.812375 0.812375 5.81904 0.812375 11.9736V12.0264C0.812375 18.181 5.81905 23.1876 11.9736 23.1876H12.0264C18.181 23.1876 23.1876 18.181 23.1876 12.0264L24 11.9736C24 5.81904 18.181 0.812375 12.0264 0.812375H11.9736Z" fill="#4F5D72"/>
<path d="M5.10851 5.65625L10.4556 12.8052L5.0752 18.6177H6.28645L10.9974 13.529L14.8034 18.6177H18.9246L13.2769 11.0667L18.2852 5.65625H17.074L12.7359 10.3429L9.2305 5.65625H5.10931H5.10851ZM6.88923 6.54826H8.78206L17.1422 17.7257H15.2494L6.88923 6.54826Z" fill="#4F5D72"/>
</svg>
